<svg xmlns="http://www.w3.org/2000/svg" width="40" height="40" viewBox="0 0 40 40"><g id="layer1" fill-opacity="1"><path fill="#ff0" fill-rule="evenodd" stroke="#000" stroke-width="1.308" stroke-opacity="1" d="M1.77 2.597h36.461v34.806H1.77z"/><path d="M20 6.265c-7.586 0-13.735 6.15-13.735 13.735 0 7.586 6.15 13.735 13.735 13.735 7.586 0 13.735-6.15 13.735-13.735 0-7.586-6.15-13.735-13.735-13.735zm-.363 8.422c3.131 0 5.676 2.522 5.676 5.624s-2.545 5.624-5.676 5.624c-3.13 0-5.675-2.522-5.675-5.624s2.544-5.624 5.675-5.624z" fill="#fff" fill-rule="nonzero" stroke="#000" stroke-width=".912" stroke-miterlimit="4" stroke-opacity="1" stroke-dasharray="none"/><path d="M7.234 71.82l4.97 4.162c-1.68 2.581-1.444 6.07.16 8.677l-5.127 3.425c.675 1.231 3.016 3.548 4.233 4.195l3.908-4.568c2.542 1.46 5.73 1.393 8.438-.126l3.47 6.109c1.13-.444 4.742-3.45 5.416-5.004l-5.462-4.416c1.443-2.424 1.651-5.267.558-7.748l5.903-3.834c-.558-.987-3.085-3.673-4.671-4.699l-4.12 4.982c-2.498-1.77-6.01-2.037-8.869-.646l-3.595-5.322c-1.346.58-4.13 2.921-5.212 4.813zm8.1 3.427c2.753-2.447 6.77-2.145 9.05.42 2.28 2.566 2.113 6.597-.64 9.044-2.752 2.446-6.775 2.137-9.055-.429-2.28-2.565-2.107-6.59.646-9.035z" fill="#000" stroke="none" transform="translate(2.247 -51.01) scale(.88764)"/></g></svg>